<svg xmlns="http://www.w3.org/2000/svg" width="1200" height="900" viewBox="0 0 1200 900" role="img" aria-label="FoliQ AminoVigor product page image">
  <defs><linearGradient id="bg" x1="0" x2="1" y1="0" y2="1"><stop stop-color="#0a3d2b"/><stop offset="0.55" stop-color="#9333ea"/><stop offset="1" stop-color="#f4f7f5"/></linearGradient><filter id="shadow"><feDropShadow dx="0" dy="24" stdDeviation="24" flood-opacity="0.25"/></filter></defs>
  <style>.eyebrow{font:800 24px Arial,sans-serif;letter-spacing:4px;fill:#d99227}.name{font:900 74px Arial,sans-serif;fill:white}.tag{font:650 34px Arial,sans-serif;fill:#e2e8f0}.label{font:800 28px Arial,sans-serif;fill:#17324d}</style>
  <rect width="1200" height="900" fill="url(#bg)"/>
  <path d="M910 -120 C1120 90 1060 380 1200 560 L1200 900 L780 900 C690 700 710 520 820 360 C900 244 840 60 910 -120Z" fill="white" opacity="0.28"/>
  <path d="M0 710 C220 620 430 720 620 622 C780 540 940 560 1200 420 L1200 900 L0 900Z" fill="#17324d" opacity="0.22"/>
  <text x="88" y="130" class="eyebrow">AGROPEST PRODUCT PAGE IMAGE</text>
  <text x="88" y="235" class="name">FoliQ AminoVigor</text>
  <text x="88" y="300" class="eyebrow">AMINO ACIDS</text>
  <text x="88" y="420" class="tag">Fast recovery after stress</text>
  <g transform="translate(780 245)" filter="url(#shadow)">
    <rect x="0" y="0" width="260" height="360" rx="36" fill="white"/>
    <rect x="42" y="-32" width="176" height="50" rx="16" fill="#e2e8f0"/>
    <rect x="35" y="75" width="190" height="150" rx="18" fill="#9333ea"/>
    <text x="130" y="145" text-anchor="middle" class="label">FoliQ</text>
    <text x="130" y="185" text-anchor="middle" class="label">AminoVigor</text>
    <path d="M45 287 C120 210 190 225 232 288 C174 270 126 319 45 287Z" fill="#0f172a" opacity="0.88"/>
  </g>
</svg>