<svg xmlns="http://www.w3.org/2000/svg" width="900" height="650" viewBox="0 0 900 650" role="img" aria-label="FoliQ K Potassium catalogue image">
  <defs>
    <linearGradient id="g" x1="0" x2="1" y1="0" y2="1"><stop stop-color="#f4f7f5"/><stop offset="0.52" stop-color="#7c3aed"/><stop offset="1" stop-color="#15803d"/></linearGradient>
    <filter id="s" x="-20%" y="-20%" width="140%" height="140%"><feDropShadow dx="0" dy="18" stdDeviation="24" flood-opacity="0.2"/></filter>
  </defs>
  <style>.small{font:700 22px Arial,sans-serif;letter-spacing:3px;fill:#d99227}.name{font:800 48px Arial,sans-serif;fill:#17324d}.tag{font:600 24px Arial,sans-serif;fill:#334155}.pack{font:900 42px Arial,sans-serif;fill:white}</style>
  <rect width="900" height="650" fill="url(#g)"/>
  <circle cx="775" cy="110" r="200" fill="white" opacity="0.22"/>
  <circle cx="790" cy="570" r="310" fill="#17324d" opacity="0.12"/>
  <rect x="42" y="42" width="816" height="566" rx="34" fill="white" opacity="0.86" filter="url(#s)"/>
  <text x="62" y="105" class="small">AGROPEST CATALOGUE IMAGE</text>
  <text x="62" y="150" class="small" fill="#7c3aed">POTASSIUM FOLIAR</text>
  <text x="62" y="235" class="name">FoliQ K Potassium</text><text x="62" y="305" class="tag">Fast potassium for stronger</text><text x="62" y="337" class="tag">fruit</text>
  <g transform="translate(620 230)">
    <rect x="0" y="0" width="170" height="235" rx="26" fill="#7c3aed"/>
    <rect x="26" y="-22" width="118" height="34" rx="12" fill="#e2e8f0"/>
    <rect x="24" y="42" width="122" height="95" rx="12" fill="white" opacity="0.92"/>
    <text x="85" y="97" text-anchor="middle" class="pack">FoliQ</text>
    <path d="M28 178 C82 116 126 122 154 171 C112 158 83 191 28 178Z" fill="#d99227" opacity="0.9"/>
  </g>
</svg>