<svg width="900" height="620" viewBox="0 0 900 620" fill="none" xmlns="http://www.w3.org/2000/svg">
  <rect width="900" height="620" fill="#F4F7F5"/>
  <rect x="110" y="115" width="170" height="360" rx="14" fill="#17324D"/>
  <rect x="302" y="160" width="170" height="315" rx="14" fill="#0F5A3C"/>
  <rect x="494" y="95" width="170" height="380" rx="14" fill="#FFFFFF" stroke="#DDE7E1" stroke-width="8"/>
  <rect x="150" y="170" width="90" height="18" rx="4" fill="#D99227"/>
  <rect x="342" y="215" width="90" height="18" rx="4" fill="#FFFFFF" opacity="0.8"/>
  <rect x="536" y="154" width="86" height="18" rx="4" fill="#0F5A3C"/>
  <path d="M0 520C200 458 384 466 570 506C720 538 814 540 900 520V620H0V520Z" fill="#4F8F45"/>
  <circle cx="718" cy="198" r="74" fill="#D99227" opacity="0.9"/>
  <path d="M692 198L714 220L752 174" stroke="#FFFFFF" stroke-width="16" stroke-linecap="round" stroke-linejoin="round"/>
</svg>
